<svg width="166" height="173" viewBox="0 0 166 173" fill="none" xmlns="http://www.w3.org/2000/svg">
<path d="M83 168.984C128.287 168.984 165 132.177 165 86.7737C165 41.3704 128.287 4.56372 83 4.56372C37.7127 4.56372 1 41.3704 1 86.7737C1 132.177 37.7127 168.984 83 168.984Z" stroke="white" stroke-width="2" stroke-miterlimit="10"/>
<path d="M83.0008 168.984C123.731 168.984 156.75 132.177 156.75 86.7737C156.75 41.3704 123.731 4.56372 83.0008 4.56372C42.2704 4.56372 9.25195 41.3704 9.25195 86.7737C9.25195 132.177 42.2704 168.984 83.0008 168.984Z" stroke="white" stroke-width="2" stroke-miterlimit="10"/>
<path d="M83.0002 168.984C117.535 168.984 145.532 140.916 145.532 106.292C145.532 71.6685 117.535 43.6006 83.0002 43.6006C48.465 43.6006 20.4688 71.6685 20.4688 106.292C20.4688 140.916 48.465 168.984 83.0002 168.984Z" stroke="white" stroke-width="2" stroke-miterlimit="10"/>
<path d="M83.0009 168.539C111.247 168.539 134.144 140.578 134.144 106.087C134.144 71.5953 111.247 43.6345 83.0009 43.6345C54.7551 43.6345 31.8574 71.5953 31.8574 106.087C31.8574 140.578 54.7551 168.539 83.0009 168.539Z" stroke="white" stroke-width="2" stroke-miterlimit="10"/>
<path d="M83.0005 168.539C105.861 168.539 124.393 149.96 124.393 127.041C124.393 104.123 105.861 85.5432 83.0005 85.5432C60.1403 85.5432 41.6084 104.123 41.6084 127.041C41.6084 149.96 60.1403 168.539 83.0005 168.539Z" stroke="white" stroke-width="2" stroke-miterlimit="10"/>
<path d="M83.0004 168.539C101.285 168.539 116.107 149.96 116.107 127.041C116.107 104.123 101.285 85.5432 83.0004 85.5432C64.716 85.5432 49.8936 104.123 49.8936 127.041C49.8936 149.96 64.716 168.539 83.0004 168.539Z" stroke="white" stroke-width="2" stroke-miterlimit="10"/>
<path d="M83.1031 88.3804C84.5154 88.3804 85.6603 87.2326 85.6603 85.8167C85.6603 84.4008 84.5154 83.2529 83.1031 83.2529C81.6908 83.2529 80.5459 84.4008 80.5459 85.8167C80.5459 87.2326 81.6908 88.3804 83.1031 88.3804Z" fill="white" stroke="white" stroke-width="3" stroke-miterlimit="10"/>
<path d="M83.1031 46.1645C84.5154 46.1645 85.6603 45.0167 85.6603 43.6008C85.6603 42.1849 84.5154 41.0371 83.1031 41.0371C81.6908 41.0371 80.5459 42.1849 80.5459 43.6008C80.5459 45.0167 81.6908 46.1645 83.1031 46.1645Z" fill="white" stroke="white" stroke-width="3" stroke-miterlimit="10"/>
<path d="M83.1031 7.12744C84.5154 7.12744 85.6603 5.97962 85.6603 4.56372C85.6603 3.14782 84.5154 2 83.1031 2C81.6908 2 80.5459 3.14782 80.5459 4.56372C80.5459 5.97962 81.6908 7.12744 83.1031 7.12744Z" fill="white" stroke="white" stroke-width="3" stroke-miterlimit="10"/>
<path d="M83.1031 171.103C84.5154 171.103 85.6603 169.955 85.6603 168.54C85.6603 167.124 84.5154 165.976 83.1031 165.976C81.6908 165.976 80.5459 167.124 80.5459 168.54C80.5459 169.955 81.6908 171.103 83.1031 171.103Z" fill="white" stroke="white" stroke-width="3" stroke-miterlimit="10"/>
</svg>
