<svg width="60" height="60" viewBox="0 0 60 60" fill="none" xmlns="http://www.w3.org/2000/svg">
<mask id="mask0_427_58" style="mask-type:alpha" maskUnits="userSpaceOnUse" x="0" y="0" width="60" height="60">
<path fill-rule="evenodd" clip-rule="evenodd" d="M0 0H60V60H0V0Z" fill="white"/>
</mask>
<g mask="url(#mask0_427_58)">
<path fill-rule="evenodd" clip-rule="evenodd" d="M30 59.9993C13.5 59.9993 0 46.4993 0 29.8493C0.15 13.3493 13.5 -0.150715 30.15 -0.000715088C46.65 0.149285 60 13.4993 60 30.2993C59.85 46.6493 46.5 59.9993 30 59.9993Z" fill="#0090FF"/>
<path fill-rule="evenodd" clip-rule="evenodd" d="M32.8496 26.4002L31.9496 31.2002L40.4996 32.4002L39.8996 34.6502L31.4996 33.4502C30.8996 35.4002 30.5996 37.5002 29.8496 39.3002C29.0996 41.4002 28.3496 43.5002 27.4496 45.4502C26.2496 48.0002 24.1496 49.8002 21.2996 50.2502C19.6496 50.5502 17.8496 50.4002 16.4996 49.3502C16.0496 49.0502 15.5996 48.4502 15.5996 48.0002C15.5996 47.4002 15.8996 46.6502 16.3496 46.3502C16.6496 46.2002 17.3996 46.3502 17.8496 46.5002C18.2996 46.9502 18.7496 47.5502 19.0496 48.1502C19.9496 49.3502 21.1496 49.5002 22.3496 48.6002C23.6996 47.4002 24.4496 45.7502 24.8996 44.1002C25.7996 40.5002 26.6996 37.0502 27.4496 33.4502V32.8502L19.4996 31.6502L19.7996 29.4002L28.0496 30.6002L29.0996 25.9502L20.5496 24.6002L20.8496 22.2002L29.6996 23.4002C29.9996 22.5002 30.1496 21.7502 30.4496 21.0002C31.1996 18.3002 31.9496 15.6002 33.7496 13.2002C35.5496 10.8002 37.6496 9.30024 40.7996 9.45024C42.1496 9.45024 43.4996 9.90024 44.3996 10.9502C44.5496 11.1002 44.8496 11.4002 44.8496 11.7002C44.8496 12.3002 44.8496 13.0502 44.3996 13.5002C43.7996 13.9502 43.0496 13.8002 42.4496 13.2002C41.9996 12.7502 41.6996 12.3002 41.2496 11.8502C40.3496 10.6502 38.9996 10.5002 37.9496 11.5502C37.1996 12.3002 36.4496 13.3502 35.9996 14.4002C34.9496 17.5502 34.1996 20.8502 33.1496 24.1502L41.3996 25.3502L40.7996 27.6002L32.8496 26.4002" fill="white"/>
</g>
</svg>
