<svg width="30" height="30" viewBox="0 0 30 30" fill="none" xmlns="http://www.w3.org/2000/svg">
<path fill-rule="evenodd" clip-rule="evenodd" d="M11.3325 1.25C10.6032 1.25017 9.90375 1.54006 9.38814 2.0559C8.87253 2.57174 8.58296 3.27128 8.58313 4.00063C8.58329 4.72997 8.87318 5.42938 9.38902 5.94499C9.90487 6.46059 10.6044 6.75017 11.3338 6.75H14.0837V4C14.0831 3.27086 13.7931 2.57177 13.2776 2.05619C12.762 1.54061 12.0629 1.25066 11.3338 1.25H11.3325ZM11.3325 8.58375H4C3.27065 8.58375 2.57118 8.87348 2.05546 9.38921C1.53973 9.90493 1.25 10.6044 1.25 11.3338C1.25 12.0631 1.53973 12.7626 2.05546 13.2783C2.57118 13.794 3.27065 14.0837 4 14.0837H11.3325C12.0618 14.0837 12.7613 13.794 13.277 13.2783C13.7928 12.7626 14.0825 12.0631 14.0825 11.3338C14.0825 10.6044 13.7928 9.90493 13.277 9.38921C12.7613 8.87348 12.0618 8.58375 11.3325 8.58375Z" fill="#0090FF"/>
<path fill-rule="evenodd" clip-rule="evenodd" d="M28.7498 11.3325C28.7498 10.6032 28.46 9.90368 27.9443 9.38796C27.4286 8.87223 26.7291 8.5825 25.9998 8.5825C25.2704 8.5825 24.5709 8.87223 24.0552 9.38796C23.5395 9.90368 23.2498 10.6032 23.2498 11.3325V14.0825H25.9998C26.7291 14.0825 27.4286 13.7928 27.9443 13.277C28.46 12.7613 28.7498 12.0618 28.7498 11.3325ZM21.416 11.3325V4C21.416 3.27065 21.1263 2.57118 20.6106 2.05546C20.0948 1.53973 19.3954 1.25 18.666 1.25C17.9367 1.25 17.2372 1.53973 16.7215 2.05546C16.2057 2.57118 15.916 3.27065 15.916 4V11.3325C15.916 12.0618 16.2057 12.7613 16.7215 13.277C17.2372 13.7928 17.9367 14.0825 18.666 14.0825C19.3954 14.0825 20.0948 13.7928 20.6106 13.277C21.1263 12.7613 21.416 12.0618 21.416 11.3325Z" fill="#0090FF"/>
<path fill-rule="evenodd" clip-rule="evenodd" d="M18.666 28.75C19.3954 28.75 20.0948 28.4603 20.6106 27.9446C21.1263 27.4289 21.416 26.7294 21.416 26C21.416 25.2707 21.1263 24.5712 20.6106 24.0555C20.0948 23.5398 19.3954 23.25 18.666 23.25H15.916V26C15.9148 27.5163 17.146 28.7475 18.666 28.75ZM18.666 21.415H25.9998C26.7291 21.415 27.4286 21.1253 27.9443 20.6096C28.46 20.0939 28.7498 19.3944 28.7498 18.665C28.7498 17.9357 28.46 17.2362 27.9443 16.7205C27.4286 16.2048 26.7291 15.915 25.9998 15.915H18.6673C17.9379 15.9149 17.2384 16.2044 16.7225 16.7201C16.2067 17.2357 15.9168 17.9351 15.9166 18.6644C15.9165 19.3938 16.206 20.0933 16.7217 20.6091C17.2373 21.125 17.9367 21.4149 18.666 21.415Z" fill="#0090FF"/>
<path fill-rule="evenodd" clip-rule="evenodd" d="M1.25 18.666C1.25 19.3954 1.53973 20.0948 2.05546 20.6106C2.57118 21.1263 3.27065 21.416 4 21.416C4.72935 21.416 5.42882 21.1263 5.94454 20.6106C6.46027 20.0948 6.75 19.3954 6.75 18.666V15.916H4C3.27065 15.916 2.57118 16.2057 2.05546 16.7215C1.53973 17.2372 1.25 17.9367 1.25 18.666ZM8.58375 18.666V25.9985C8.58358 26.7279 8.87316 27.4274 9.38876 27.9432C9.90437 28.4591 10.6038 28.749 11.3331 28.7491C12.0625 28.7493 12.762 28.4597 13.2779 27.9441C13.7937 27.4285 14.0836 26.7291 14.0837 25.9998V18.6673C14.0839 17.9379 13.7943 17.2384 13.2787 16.7225C12.7631 16.2067 12.0637 15.9168 11.3344 15.9166C10.605 15.9165 9.90549 16.206 9.38965 16.7217C8.87381 17.2373 8.58392 17.9367 8.58375 18.666Z" fill="#0090FF"/>
</svg>
