<svg width="30" height="30" viewBox="0 0 30 30" fill="none" xmlns="http://www.w3.org/2000/svg">
<path d="M29.5544 6.17147C28.5106 6.63397 27.3894 6.94647 26.2106 7.08772C27.4269 6.35996 28.3368 5.21455 28.7706 3.86522C27.6279 4.54396 26.3773 5.02171 25.0731 5.27772C24.1961 4.3413 23.0345 3.72063 21.7685 3.51206C20.5026 3.3035 19.2032 3.51871 18.0722 4.12428C16.9411 4.72986 16.0416 5.69192 15.5133 6.8611C14.985 8.03027 14.8575 9.34116 15.1506 10.5902C12.8352 10.474 10.5702 9.87215 8.50241 8.82385C6.43465 7.77554 4.61043 6.30417 3.14813 4.50522C2.64812 5.36772 2.36063 6.36772 2.36063 7.43272C2.36007 8.39146 2.59617 9.33552 3.04797 10.1811C3.49978 11.0267 4.15333 11.7478 4.95063 12.2802C4.02597 12.2508 3.12172 12.0009 2.31313 11.5515V11.6265C2.31303 12.9711 2.77817 14.2744 3.6296 15.3152C4.48104 16.356 5.66634 17.0701 6.98438 17.3365C6.12661 17.5686 5.2273 17.6028 4.35438 17.4365C4.72625 18.5935 5.45062 19.6052 6.42608 20.3301C7.40155 21.055 8.57927 21.4567 9.79438 21.479C7.73167 23.0982 5.18423 23.9766 2.56188 23.9727C2.09735 23.9728 1.63322 23.9457 1.17188 23.8915C3.83372 25.6029 6.9323 26.5112 10.0969 26.5077C20.8094 26.5077 26.6656 17.6352 26.6656 9.94022C26.6656 9.69022 26.6594 9.43772 26.6481 9.18772C27.7872 8.36394 28.7705 7.34384 29.5519 6.17522L29.5544 6.17147Z" fill="#0090FF"/>
</svg>
