<svg width="32" height="26" viewBox="0 0 32 26" fill="none" xmlns="http://www.w3.org/2000/svg">
<path d="M28 25H4C3.20435 25 2.44129 24.6839 1.87868 24.1213C1.31607 23.5587 1 22.7957 1 22V3.8695C1.03365 3.09669 1.36451 2.36674 1.92352 1.83205C2.48252 1.29736 3.22645 0.999269 4 1H28C28.7956 1 29.5587 1.31607 30.1213 1.87868C30.6839 2.44129 31 3.20435 31 4V22C31 22.7957 30.6839 23.5587 30.1213 24.1213C29.5587 24.6839 28.7956 25 28 25ZM4 6.802V22H28V6.802L16 14.8L4 6.802ZM5.2 4L16 11.2L26.8 4H5.2Z" fill="#0090FF" stroke="#0090FF"/>
</svg>
