<svg width="52" height="60" viewBox="0 0 52 60" fill="none" xmlns="http://www.w3.org/2000/svg">
<path d="M25.9805 59.9999L51.9605 44.9892V14.9893L25.9805 29.9786V59.9999Z" fill="#35777A"/>
<path d="M25.98 59.9999V29.9494L0 14.9893V44.9892L25.98 59.9999Z" fill="#43979B"/>
<path d="M0 14.9893L25.98 29.9786L51.96 14.9893L25.98 0L0 14.9893Z" fill="#3F898D"/>
<path d="M23.3069 3.60547L4.46875 14.4893C4.51152 14.8314 4.51152 15.1521 4.46875 15.4943L23.3069 26.3781C24.8893 25.202 27.0703 25.202 28.6526 26.3781L47.4908 15.4943C47.448 15.1521 47.448 14.8314 47.4908 14.4893L28.6526 3.60547C27.0489 4.78152 24.8893 4.78152 23.3069 3.60547Z" fill="#51B8BC"/>
<path d="M49.2863 18.4873L30.4267 29.478C30.6406 31.4452 29.5714 33.3055 27.7539 34.0967L27.7753 55.736C28.0746 55.8643 28.374 56.0354 28.652 56.2492L47.4902 45.3654C47.2763 43.3982 48.3455 41.5379 50.163 40.7467V19.0005C49.8636 18.8722 49.5643 18.7011 49.2863 18.4873Z" fill="#459DA2"/>
<path d="M2.67259 18.6157C2.39461 18.8082 2.11664 18.9792 1.7959 19.1289V40.8751C3.61343 41.6663 4.68257 43.548 4.46874 45.4938L23.3069 56.3776C23.5849 56.1852 23.8629 56.0141 24.1836 55.8644V34.1182C22.3661 33.327 21.2969 31.4454 21.5108 29.4995L2.67259 18.6157Z" fill="#64C1C8"/>
</svg>
