<svg width="52" height="60" viewBox="0 0 52 60" fill="none" xmlns="http://www.w3.org/2000/svg">
<path d="M51.891 35.0801L43.3112 40.0045L43.2383 40.0508V50.0453V50.0519L51.891 45.0812V35.0801Z" fill="#BE3F9E"/>
<path d="M43.2709 40.0513L34.6586 44.9886L34.5857 45.0283H34.5791V55.0294H34.5857L43.2709 50.0377V40.0513Z" fill="#3DA1BD"/>
<path d="M8.79754 50.0109L8.73329 40.0298L0.0078125 34.9014V44.8958V44.9025L8.79754 50.0109Z" fill="#81D2E0"/>
<path d="M17.3068 54.9631V44.962L8.64746 39.978L8.65409 49.9328H8.66071L17.3068 54.9631Z" fill="#81D2E0"/>
<path d="M25.9594 60L25.9685 50.0014L17.3066 44.9619V54.9696H17.3133L25.9594 60Z" fill="#49B7CF"/>
<path d="M34.6117 45.0283L26.0319 49.9528L25.959 49.9991V60.0002L34.5786 55.0294L34.6117 45.0283Z" fill="#3DA1BD"/>
<path d="M51.8908 25.0781L43.2772 30.0216L43.2314 30.0618V40.0572V40.0638L51.8908 35.0861V25.0781Z" fill="#994FA0"/>
<path d="M43.2453 30.0762L34.6654 35.0006L34.5926 35.0403L34.5859 45.0414L43.2387 40.0773V40.0707L43.2453 30.0762Z" fill="#994FA0"/>
<path d="M8.64709 39.978L8.65371 29.9769L0.000976562 24.9268L0.00760194 34.9345L8.64709 39.978Z" fill="#FFC41A"/>
<path d="M17.3068 44.9621V35.0073L12.9877 32.4812L8.65449 29.9658L8.64746 39.9781H8.65409L17.3068 44.9621Z" fill="#F39B35"/>
<path d="M25.9594 49.999V39.9979L17.3066 34.9609V44.962L25.9594 49.999Z" fill="#22758E"/>
<path d="M34.6121 35.0269L26.0322 39.9513L25.9594 39.991L25.9473 40.0164L25.9594 49.9987L34.6121 45.028V35.0269Z" fill="#026D8E"/>
<path d="M25.933 10.0011L26.0059 9.96139L34.5858 5.03034L25.933 0L17.2803 4.97077L25.933 10.0011Z" fill="#C4CD46"/>
<path d="M34.592 15.0314L34.6582 14.985L43.2381 10.0606L34.5854 5.03027L25.9326 10.001L34.592 15.0314Z" fill="#F064A4"/>
<path d="M43.2389 20.0617H43.2455L43.3118 20.0153L51.8916 15.0909L43.2389 10.0605L34.5928 15.0313L43.2389 20.0617Z" fill="#AA6AAB"/>
<path d="M51.891 15.0908L43.3112 20.0153L43.2383 20.0616V30.0561L43.2449 30.0627L51.891 25.0919V15.0908Z" fill="#994FA0"/>
<path d="M17.2936 14.9718L17.3665 14.9255L25.9397 10.001L17.2936 4.9707L8.64746 9.96133L17.2936 14.9718Z" fill="#CDDD40"/>
<path d="M25.9596 20.0419L34.5925 15.0314L25.93 9.99414L17.2822 14.9686L25.9596 20.0419Z" fill="#CDDD40"/>
<path d="M34.6117 25.0726L43.238 20.0621L34.5918 15.0317L25.959 20.0422L34.6117 25.0726Z" fill="#8F499E"/>
<path d="M43.2385 20.062L34.6852 25.0262L34.6123 25.0725V35.0736L43.2915 30.0631V30.0565L43.2452 20.062H43.2385Z" fill="#5F356B"/>
<path d="M8.65405 19.9758L17.2935 14.9719L8.64743 9.96143L0 14.9485L8.65405 19.9758Z" fill="#FFD75A"/>
<path d="M8.65371 29.9768V19.9756L0.000976562 14.9453V24.9464H0.00760194L8.65371 29.9768Z" fill="#FFC41A"/>
<path d="M17.3137 25.0125L17.3865 24.9662L25.9664 20.0417L17.2938 14.9717L8.6543 19.9755L17.307 25.0125H17.3137Z" fill="#F8B730"/>
<path d="M17.307 35.0217V25.0059L8.6543 19.9756V29.9767L17.307 35.0217Z" fill="#F39B35"/>
<path d="M25.9597 30.0431L26.0326 29.9968L34.6124 25.0723L25.9597 20.042L17.293 25.0046L25.9597 30.0431Z" fill="#F8B730"/>
<path d="M25.9658 40.0441H25.9725V30.043L17.3065 25.0127L17.2979 34.9976L25.9658 40.0441Z" fill="#F39B35"/>
<path d="M26.0319 29.9967L25.959 30.043V40.0375L25.9656 40.0441L34.6117 35.0734V25.0723L26.0319 29.9967Z" fill="#FAAA36"/>
</svg>
